<?xml version="1.0" encoding="utf-8"?>
<!-- Generator: Adobe Illustrator 16.0.4, SVG Export Plug-In . SVG Version: 6.00 Build 0)  -->
<!DOCTYPE svg PUBLIC "-//W3C//DTD SVG 1.1//EN" "http://www.w3.org/Graphics/SVG/1.1/DTD/svg11.dtd">
<svg version="1.1" id="Layer_1" xmlns="http://www.w3.org/2000/svg" xmlns:xlink="http://www.w3.org/1999/xlink" x="0px" y="0px"
	 width="432px" height="432px" viewBox="0 0 432 432" enable-background="new 0 0 432 432" xml:space="preserve">
<g>
	<path fill-rule="evenodd" clip-rule="evenodd" fill="#F9A31B" d="M243.73,76.627c0,0.189-55.233,0-55.233,0
		c0-17.334,10.463-17.305,27.617-17.35C233.45,59.232,243.73,59.258,243.73,76.627z"/>
	<g>
		<path fill-rule="evenodd" clip-rule="evenodd" fill="#F9A31B" d="M322.238,124.54c-7.156-6.663-11.384-10.602-18.098-16.852
			c7.006-4.107,12.188-8.585,18.076-9.899c2.396-0.536,9.3,6.159,8.945,8.891C330.442,112.186,326.164,117.23,322.238,124.54z"/>
	</g>
</g>
<circle fill-rule="evenodd" clip-rule="evenodd" fill="none" stroke="#F9A31A" stroke-width="9" stroke-miterlimit="10" cx="214.813" cy="218.117" r="132.001"/>
<path fill="#6FB4DF" d="M218.985,107.096c0.008-0.493-5.494,4.127-14.051,17.274c-8.466,13.089-19.987,34.705-29.823,66.999
	c-8.133,27.182-12.092,60.426-12.152,82.457c-0.32,22.808,3.257,34.404,4.142,36.171c15.853,19.059,53.973,4.117,53.535,4.737
	c-0.019,0.469-5.278-8.415-9.758-25.067c-4.572-16.509-8.366-40.775-7.64-67.704C204.375,178.463,219.158,106.901,218.985,107.096z"
	/>
<path fill="#4576B0" d="M273.381,41.598c-0.049-0.625-7.12,6.554-17.409,25.216c-10.163,18.568-23.547,48.619-33.313,91.69
	c-8.016,36.219-9.521,79.021-6.967,106.763c2.283,28.772,8.631,42.48,10.071,44.482c24.253,20.05,75.301-8.199,74.767-7.307
	c0.03,0.589-8.32-9.284-16.521-29.123c-8.319-19.635-16.482-49.229-18.696-83.292C261.677,135.014,273.6,41.31,273.381,41.598z"/>
<g id="Layer_4">
	<g>
		<path fill-rule="evenodd" clip-rule="evenodd" fill="#4576B0" d="M333.627,298.454c-11.027,11.886-24.462,18.554-39.227,22.502
			c-19.241,5.143-38.79,5.809-58.386,6.021c-21.977,0.242-43.96-0.774-65.934,1.132c-16.196,1.407-32.172,4.08-47.126,11.806
			c-12.894,6.657-22.951,16.787-30.166,30.307c-0.458,0.86-0.864,1.756-1.239,2.665c-0.161,0.386-0.181,0.843-0.317,1.532
			c4.777-3.507,8.698-7.845,13.385-11.099c8.147-5.657,16.932-9.382,26.291-11.496c20.172-4.55,40.199-2.141,60.212,0.759
			c15.703,2.268,31.329,5.196,47.175,6.328c15.915,1.138,31.758,0.478,47.099-5.165c11.225-4.123,21.153-10.914,29.71-20.025
			c9.843-10.48,18.15-21.723,24.778-36.454c3.569-9.257,0,0,3.569-9.257"/>
		<path fill-rule="evenodd" clip-rule="evenodd" fill="#6EB4DF" d="M248.66,371.379c-0.561-0.449-1.23-0.572-1.915-0.568
			c-0.847,0.006-1.689,0.024-2.533,0.013c-1.843-0.021-3.695-0.071-5.537-0.154c-3.68-0.163-7.349-0.442-11.01-0.824
			c-7.325-0.769-14.6-1.956-21.817-3.475c-3.6-0.757-7.183-1.599-10.746-2.531c-3.543-0.927-28.941-7.062-30.785-7.403
			c-14.638-2.724-30.19-3.475-44.556,1.752c-3.665,1.335-7.225,3.026-10.648,5.002c-3.178,1.836-6.356,3.819-9.385,5.942
			c-0.4,0.276-0.796,0.684-0.655,1.25c0.156,0.623,0.621,0.858,1.173,0.708c0.506-0.142,0.978-0.44,1.467-0.642
			c0.956-0.395,1.919-0.758,2.889-1.099c3.73-1.307,7.545-2.257,11.361-3.167c3.484-0.836,6.961-1.521,10.517-1.801
			c3.418-0.269,6.848-0.226,10.257,0.076c7.148,0.636,14.116,2.466,20.98,4.6c7.182,2.235,14.273,4.801,21.515,6.814
			c6.765,1.878,13.664,3.079,20.652,3.479c6.886,0.394,13.812,0.049,20.667-0.93c7.551-1.08,14.904-3.157,22.331-4.993
			c1.058-0.258,2.112-0.505,3.171-0.752C247.008,372.455,247.942,372.146,248.66,371.379
			C247.731,370.628,247.774,372.324,248.66,371.379z"/>
	</g>
</g>
<path fill="#C12226" d="M158.369,327.351c0,0-14.879-47.258-18.916-47.971c0,0-7.976-6.576-14.655,1.783
	c-1.771,2.215-1.813,3.595-6.792,25.672l-3.534,15.334c0,0-5.714,17.006,20.726,18.74
	C150.814,341.938,158.369,327.351,158.369,327.351z"/>
<g>
</g>
<g>
</g>
<g>
</g>
<g>
</g>
<g>
</g>
<g>
</g>
</svg>
